
<!-- sample rectangle -->
<svg width="50.5cm" height="17.5cm" xmlns="http://www.w3.org/2000/svg"
viewBox="-38.5 -6.5 104 36">

  <g dominant-baseline="middle" font-family="Arial" font-size="0.8px" text-anchor="end" transform="translate(0.5,0)">
    <g transform="translate(-1,-0.5)" fill="none" stroke-width="0.1">
      <path d="M-35,24 v-13 h16  v13  h-16 m16,3  h-12 v-1 h11 v-1 h1 v2 m15,-19 v-13 h1 v13 h-1" stroke="green" />
      <path d="m36,27  h13  v-16 h-13 v16  m-3,-16 v12  h1  v-11 h1 v-1 h-2 m19,-15 h13 v-1 h-13 v1" stroke="blue" />

      <path d="M-17,9 v1 h-1 v-1 h13 v1 h-12" stroke="yellow" />
      <path d="M-32,9 v1 h-1 v-1 h13 v1 h-12" stroke="yellow" />
      <path d="M35,10 v-13 h13 v13 h-13" stroke="orange" />
      <path d="M-18,25 v-13 h13 v13 h-13" stroke="red" />
      <path d="M50,24 h1 v1 h-1 v-13 h1 v12" stroke="cyan" />
      <path d="M50,9 h1 v1 h-1 v-13 h1 v12" stroke="cyan" />

      <path d="M-36,-6 h102 v34 h-14 v2 h-3 v-2 h-85 v-17 h-2 v-3 h2 v-14" stroke="red" />
      <path d="M-2,-6 v34 m34,-34 v34" stroke="red" />
    </g>
    <g transform="translate(-0.1,11)">
      <text x="-32" y="-2" font-size="0.6px">cm</text>
      <text y="-16" x="-1">z=0</text>
      <text y="-16" x="-35">z=1</text>
      <text y="-16" x="33">z=2</text>
      <text y= "0">12</text>
      <text y= "1">11</text>
      <text y= "2">10</text>
      <text y= "3">9</text>
      <text y= "4">8</text>
      <text y= "5">7</text>
      <text y= "6">6</text>
      <text y= "7">5</text>
      <text y= "8">4</text>
      <text y= "9">3</text>
      <text y="10">2</text>
      <text y="11">1</text>
      <text y="12">0</text>
    </g>
    <g transform="translate(2.85,25)">
      <text x= "-1">0</text>
      <text x= "0">1</text>
      <text x= "1">2</text>
      <text x= "2">3</text>
      <text x= "3">4</text>
      <text x= "4">5</text>
      <text x= "5">6</text>
      <text x= "6">7</text>
      <text x= "7">8</text>
      <text x= "8">9</text>
      <text x= "9">10</text>
      <text x="10">11</text>
      <text x="11">12</text>
    </g>

    <g font-size="0.5" transform="translate(2.1,-2)">
      <g transform="translate(16.75,9)">
        <text x= "-1">0</text>
        <text x= "0">0</text>
        <text x= "1">0</text>
        <text x= "2">0</text>
        <text x= "3">0</text>
        <text x= "4">0</text>
        <text x= "5">0</text>
        <text x= "6">0</text>
        <text x= "7">0</text>
        <text x= "8">0</text>
        <text x= "9">0</text>
        <text x="10">0</text>
        <text x="11">0</text>
      </g>
      <g transform="translate(16.75,8)">
        <text x= "-1">0</text>
        <text x= "0">1</text>
        <text x= "1">2</text>
        <text x= "2">3</text>
        <text x= "3">4</text>
        <text x= "4">5</text>
        <text x= "5">6</text>
        <text x= "6">7</text>
        <text x= "7">8</text>
        <text x= "8">9</text>
        <text x= "9">10</text>
        <text x="10">11</text>
        <text x="11">12</text>
      </g>
      <g transform="translate(16.75,7)">
        <text x= "-1">0</text>
        <text x= "0">2</text>
        <text x= "1">4</text>
        <text x= "2">6</text>
        <text x= "3">8</text>
        <text x= "4">10</text>
        <text x= "5">12</text>
        <text x= "6">14</text>
        <text x= "7">16</text>
        <text x= "8">18</text>
        <text x= "9">20</text>
        <text x="10">22</text>
        <text x="11">24</text>
      </g>
      <g transform="translate(16.75,6)">
        <text x= "-1">0</text>
        <text x= "0">3</text>
        <text x= "1">6</text>
        <text x= "2">9</text>
        <text x= "3">12</text>
        <text x= "4">15</text>
        <text x= "5">18</text>
        <text x= "6">21</text>
        <text x= "7">24</text>
        <text x= "8">27</text>
        <text x= "9">30</text>
        <text x="10">33</text>
        <text x="11">36</text>
      </g>
      <g transform="translate(16.75,5)">
        <text x= "-1">0</text>
        <text x= "0">4</text>
        <text x= "1">8</text>
        <text x= "2">12</text>
        <text x= "3">16</text>
        <text x= "4">20</text>
        <text x= "5">24</text>
        <text x= "6">28</text>
        <text x= "7">32</text>
        <text x= "8">36</text>
        <text x= "9">40</text>
        <text x="10">44</text>
        <text x="11">48</text>
      </g>
      <g transform="translate(16.75,4)">
        <text x= "-1">0</text>
        <text x= "0">5</text>
        <text x= "1">10</text>
        <text x= "2">15</text>
        <text x= "3">20</text>
        <text x= "4">25</text>
        <text x= "5">30</text>
        <text x= "6">35</text>
        <text x= "7">40</text>
        <text x= "8">45</text>
        <text x= "9">50</text>
        <text x="10">55</text>
        <text x="11">60</text>
      </g>
      <g transform="translate(16.75,3)">
        <text x= "-1">0</text>
        <text x= "0">6</text>
        <text x= "1">12</text>
        <text x= "2">18</text>
        <text x= "3">24</text>
        <text x= "4">30</text>
        <text x= "5">36</text>
        <text x= "6">42</text>
        <text x= "7">48</text>
        <text x= "8">54</text>
        <text x= "9">60</text>
        <text x="10">66</text>
        <text x="11">72</text>
      </g>
      <g transform="translate(16.75,2)">
        <text x= "-1">0</text>
        <text x= "0">7</text>
        <text x= "1">14</text>
        <text x= "2">21</text>
        <text x= "3">28</text>
        <text x= "4">35</text>
        <text x= "5">42</text>
        <text x= "6">49</text>
        <text x= "7">56</text>
        <text x= "8">63</text>
        <text x= "9">70</text>
        <text x="10">77</text>
        <text x="11">84</text>
      </g>
      <g transform="translate(16.75,1)">
        <text x= "-1">0</text>
        <text x= "0">8</text>
        <text x= "1">16</text>
        <text x= "2">24</text>
        <text x= "3">32</text>
        <text x= "4">40</text>
        <text x= "5">48</text>
        <text x= "6">56</text>
        <text x= "7">64</text>
        <text x= "8">72</text>
        <text x= "9">80</text>
        <text x="10">88</text>
        <text x="11">96</text>
      </g>
      <g transform="translate(16.75,0)">
        <text x= "-1">0</text>
        <text x= "0">9</text>
        <text x= "1">18</text>
        <text x= "2">27</text>
        <text x= "3">36</text>
        <text x= "4">45</text>
        <text x= "5">54</text>
        <text x= "6">63</text>
        <text x= "7">72</text>
        <text x= "8">81</text>
        <text x= "9">90</text>
        <text x="10">99</text>
        <text x="11">108</text>
      </g>
      <g transform="translate(16.75,-1)">
        <text x= "-1">0</text>
        <text x= "0">10</text>
        <text x= "1">20</text>
        <text x= "2">30</text>
        <text x= "3">40</text>
        <text x= "4">50</text>
        <text x= "5">60</text>
        <text x= "6">70</text>
        <text x= "7">80</text>
        <text x= "8">90</text>
        <text x= "9">100</text>
        <text x="10">110</text>
        <text x="11">120</text>
      </g>
      <g transform="translate(16.75,-2)">
        <text x= "-1">0</text>
        <text x= "0">11</text>
        <text x= "1">22</text>
        <text x= "2">33</text>
        <text x= "3">44</text>
        <text x= "4">55</text>
        <text x= "5">66</text>
        <text x= "6">77</text>
        <text x= "7">88</text>
        <text x= "8">99</text>
        <text x= "9">110</text>
        <text x="10">121</text>
        <text x="11">132</text>
      </g>
      <g transform="translate(16.75,-3)">
        <text x= "-1">0</text>
        <text x= "0">12</text>
        <text x= "1">24</text>
        <text x= "2">36</text>
        <text x= "3">48</text>
        <text x= "4">60</text>
        <text x= "5">72</text>
        <text x= "6">84</text>
        <text x= "7">96</text>
        <text x= "8">108</text>
        <text x= "9">120</text>
        <text x="10">132</text>
        <text x="11">144</text>
      </g>
    </g>
  </g>
  <g transform="translate(-1,11)">
    <circle cy= "0" r=".3"/>
    <circle cy= "1" r=".3"/>
    <circle cy= "2" r=".3"/>
    <circle cy= "3" r=".3"/>
    <circle cy= "4" r=".3"/>
    <circle cy= "5" r=".3"/>
    <circle cy= "6" r=".3"/>
    <circle cy= "7" r=".3"/>
    <circle cy= "8" r=".3"/>
    <circle cy= "9" r=".3"/>
    <circle cy="10" r=".3"/>
    <circle cy="11" r=".3"/>
  </g>
  <g transform="translate(3,11)">
    <circle cy= "0" r=".3"/>
    <circle cy= "1" r=".3"/>
    <circle cy= "2" r=".3"/>
    <circle cy= "3" r=".3"/>
    <circle cy= "4" r=".3"/>
    <circle cy= "5" r=".3"/>
    <circle cy= "6" r=".3"/>
    <circle cy= "7" r=".3"/>
    <circle cy= "8" r=".3"/>
    <circle cy= "9" r=".3"/>
    <circle cy="10" r=".3"/>
    <circle cy="11" r=".3"/>
  </g>
  <g transform="translate(4,11)">
    <circle cy= "0" r=".3"/>
    <circle cy= "1" r=".3"/>
    <circle cy= "2" r=".3"/>
    <circle cy= "3" r=".3"/>
    <circle cy= "4" r=".3"/>
    <circle cy= "5" r=".3"/>
    <circle cy= "6" r=".3"/>
    <circle cy= "7" r=".3"/>
    <circle cy= "8" r=".3"/>
    <circle cy= "9" r=".3"/>
    <circle cy="10" r=".3"/>
    <circle cy="11" r=".3"/>
  </g>
  <g transform="translate(5,11)">
    <circle cy= "0" r=".3"/>
    <circle cy= "1" r=".3"/>
    <circle cy= "2" r=".3"/>
    <circle cy= "3" r=".3"/>
    <circle cy= "4" r=".3"/>
    <circle cy= "5" r=".3"/>
    <circle cy= "6" r=".3"/>
    <circle cy= "7" r=".3"/>
    <circle cy= "8" r=".3"/>
    <circle cy= "9" r=".3"/>
    <circle cy="10" r=".3"/>
    <circle cy="11" r=".3"/>
  </g>
  <g transform="translate(6,11)">
    <circle cy= "0" r=".3"/>
    <circle cy= "1" r=".3"/>
    <circle cy= "2" r=".3"/>
    <circle cy= "3" r=".3"/>
    <circle cy= "4" r=".3"/>
    <circle cy= "5" r=".3"/>
    <circle cy= "6" r=".3"/>
    <circle cy= "7" r=".3"/>
    <circle cy= "8" r=".3"/>
    <circle cy= "9" r=".3"/>
    <circle cy="10" r=".3"/>
    <circle cy="11" r=".3"/>
  </g>
  <g transform="translate(7,11)">
    <circle cy= "0" r=".3"/>
    <circle cy= "1" r=".3"/>
    <circle cy= "2" r=".3"/>
    <circle cy= "3" r=".3"/>
    <circle cy= "4" r=".3"/>
    <circle cy= "5" r=".3"/>
    <circle cy= "6" r=".3"/>
    <circle cy= "7" r=".3"/>
    <circle cy= "8" r=".3"/>
    <circle cy= "9" r=".3"/>
    <circle cy="10" r=".3"/>
    <circle cy="11" r=".3"/>
  </g>
  <g transform="translate(8,11)">
    <circle cy= "0" r=".3"/>
    <circle cy= "1" r=".3"/>
    <circle cy= "2" r=".3"/>
    <circle cy= "3" r=".3"/>
    <circle cy= "4" r=".3"/>
    <circle cy= "5" r=".3"/>
    <circle cy= "6" r=".3"/>
    <circle cy= "7" r=".3"/>
    <circle cy= "8" r=".3"/>
    <circle cy= "9" r=".3"/>
    <circle cy="10" r=".3"/>
    <circle cy="11" r=".3"/>
  </g>
  <g transform="translate(9,11)">
    <circle cy= "0" r=".3"/>
    <circle cy= "1" r=".3"/>
    <circle cy= "2" r=".3"/>
    <circle cy= "3" r=".3"/>
    <circle cy= "4" r=".3"/>
    <circle cy= "5" r=".3"/>
    <circle cy= "6" r=".3"/>
    <circle cy= "7" r=".3"/>
    <circle cy= "8" r=".3"/>
    <circle cy= "9" r=".3"/>
    <circle cy="10" r=".3"/>
    <circle cy="11" r=".3"/>
  </g>
  <g transform="translate(10,11)">
    <circle cy= "0" r=".3"/>
    <circle cy= "1" r=".3"/>
    <circle cy= "2" r=".3"/>
    <circle cy= "3" r=".3"/>
    <circle cy= "4" r=".3"/>
    <circle cy= "5" r=".3"/>
    <circle cy= "6" r=".3"/>
    <circle cy= "7" r=".3"/>
    <circle cy= "8" r=".3"/>
    <circle cy= "9" r=".3"/>
    <circle cy="10" r=".3"/>
    <circle cy="11" r=".3"/>
  </g>
  <g transform="translate(11,11)">
    <circle cy= "0" r=".3"/>
    <circle cy= "1" r=".3"/>
    <circle cy= "2" r=".3"/>
    <circle cy= "3" r=".3"/>
    <circle cy= "4" r=".3"/>
    <circle cy= "5" r=".3"/>
    <circle cy= "6" r=".3"/>
    <circle cy= "7" r=".3"/>
    <circle cy= "8" r=".3"/>
    <circle cy= "9" r=".3"/>
    <circle cy="10" r=".3"/>
    <circle cy="11" r=".3"/>
  </g>
  <g transform="translate(12,11)">
    <circle cy= "0" r=".3"/>
    <circle cy= "1" r=".3"/>
    <circle cy= "2" r=".3"/>
    <circle cy= "3" r=".3"/>
    <circle cy= "4" r=".3"/>
    <circle cy= "5" r=".3"/>
    <circle cy= "6" r=".3"/>
    <circle cy= "7" r=".3"/>
    <circle cy= "8" r=".3"/>
    <circle cy= "9" r=".3"/>
    <circle cy="10" r=".3"/>
    <circle cy="11" r=".3"/>
  </g>
  <g transform="translate(13,11)">
    <circle cy= "0" r=".3"/>
    <circle cy= "1" r=".3"/>
    <circle cy= "2" r=".3"/>
    <circle cy= "3" r=".3"/>
    <circle cy= "4" r=".3"/>
    <circle cy= "5" r=".3"/>
    <circle cy= "6" r=".3"/>
    <circle cy= "7" r=".3"/>
    <circle cy= "8" r=".3"/>
    <circle cy= "9" r=".3"/>
    <circle cy="10" r=".3"/>
    <circle cy="11" r=".3"/>
  </g>
  <g transform="translate(14,11)">
    <circle cy= "0" r=".3"/>
    <circle cy= "1" r=".3"/>
    <circle cy= "2" r=".3"/>
    <circle cy= "3" r=".3"/>
    <circle cy= "4" r=".3"/>
    <circle cy= "5" r=".3"/>
    <circle cy= "6" r=".3"/>
    <circle cy= "7" r=".3"/>
    <circle cy= "8" r=".3"/>
    <circle cy= "9" r=".3"/>
    <circle cy="10" r=".3"/>
    <circle cy="11" r=".3"/>
  </g>
  <g transform="translate(3,26)">
    <circle cx= "0" r=".3"/>
    <circle cx= "1" r=".3"/>
    <circle cx= "2" r=".3"/>
    <circle cx= "3" r=".3"/>
    <circle cx= "4" r=".3"/>
    <circle cx= "5" r=".3"/>
    <circle cx= "6" r=".3"/>
    <circle cx= "7" r=".3"/>
    <circle cx= "8" r=".3"/>
    <circle cx= "9" r=".3"/>
    <circle cx="10" r=".3"/>
    <circle cx="11" r=".3"/>
  </g>
</svg>
