<?xml version="1.0" standalone="no"?>
<!DOCTYPE svg PUBLIC "-//W3C//DTD SVG 1.1//EN" 
  "http://www.w3.org/Graphics/SVG/1.1/DTD/svg11.dtd">
<svg version="1.1" viewBox="-1 -1 2 2"
     xmlns="http://www.w3.org/2000/svg" onload="init(evt)">
<script type="text/javascript"><![CDATA[
function text(x,y,str){
  var newText = document.createElementNS(svgNS,"text");
  newText.setAttributeNS(null,"x",x);     
  newText.setAttributeNS(null,"y",y); 
  newText.setAttributeNS(null,"font-size","100");
  newText.setAttributeNS(null,"text-anchor","middle");
  newText.setAttributeNS(null,"dominant-baseline","central");
  var textNode = document.createTextNode(str);
  newText.appendChild(textNode);
  document.getElementById("numbers").appendChild(newText);
}
function pathsCompile(){
  paths=svg.getElementsByTagName("path");
  paths.forEach(element.d=>{
    var newStr = str.replace(/\d?n(?:[+-]\d+)?/g, function(match) {
      element.setAttributeNS(null,"d",eval(match.split("").replace("2n","2*n")).join("");
    });
  }
}
function init(e){
  let params = (new URL(document.location)).searchParams;
  if ('n' in params === false) n = 11;
  else n=parseInt(params.n);
  if ('icon' in params === false) icon = "X"; //poomoji would be cooler
  else icon=params.icon;
  if ('layers' in params === false) layers = "all"; // /bottom/slider
  else layers=params.layers;
  // make the above safer?
  //
  // numbers and emoji
  for (let i = 0; i <= n; i++) {
    small=4.5;
    big=i+6.5;
    text(big,small,i);
    text(small,big,i);
    if (i>0){
      text(big,small-1,icon);
      text(small-1,big,icon);
    }
    for (let j = 0; j <= n; j++) {
      if ((i*j)>0) text(i+6.5,j+6.5,icon);
      text(i+n+7.5,j+n+7.5,i*j);
    }
  }
  pathsCompile();
}
]]>
</script>
    <rect x="-1" y="-1" height="2" width="2"/>

<g id="numbers"/>
<path id="content_outline" d="M0,-8 v2n+27 h2 v-8 h2n+7 v8 h2 v-2n-27 h-2 v8 h-2n-7 v-8 h-2 M0,0 l2,2 M0,2n+11 l2,-2 M2n+11,2n+11 l-2,-2 M2n+11,0 l-2,2" />
<path id="slider_outline" d="M2,0 vn+2 h-2 vn+7 h+2 vn+2 h2n+9 v-n-2 h2 v-n-7 h-2 v-n-2 h-2n-9" />
<path id="slider_opaque" d="M3,6 v2n+1 h2 v-2n-1 h-2 M6,n+7 vn h2n+2 v-n h-2n-2 Mn+7,2n+8 vn hn+1 v-n h-n-1" />
<path id="slider_transparent" d="M3,6 vn+1 h2 v-1 h-1 v-n h-1 M6,3 vn+4 hn+1 v-n-4 h-n-1 Mn+7,2n+7 v1 hn+1 v-1 h-n-1" />

<!--
// Let Chrome handle printing (to PDF)
// F12>CopyOuterHTML on <html>, save in file ...OR... CopyElement and then at https://jakearchibald.github.io/svgomg/ "paste markup"
// Black&White Emoji Font, Noto Sans Emoji
-->
</svg>
